<svg width="28" height="29" viewBox="0 0 28 29" fill="none" xmlns="http://www.w3.org/2000/svg">
<path d="M27.0674 14.6659C27.0674 22.0758 21.1158 28.075 13.7837 28.075C6.45158 28.075 0.5 22.0758 0.5 14.6659C0.5 7.25601 6.45158 1.25684 13.7837 1.25684C21.1158 1.25684 27.0674 7.25601 27.0674 14.6659Z" stroke="white"/>
<path d="M15.0103 21.8197V15.4154H17.7504L18.1577 12.9079H15.0103V11.3108C15.0103 10.5872 15.266 10.0918 16.583 10.0918H18.2518V7.85621C17.4399 7.78759 16.6237 7.75446 15.8071 7.75697C13.3851 7.75697 11.7222 8.92281 11.7222 11.063V12.9032H9V15.4107H11.7282V21.8197H15.0103Z" fill="white"/>
</svg>
