<svg width="28" height="29" viewBox="0 0 28 29" fill="none" xmlns="http://www.w3.org/2000/svg">
<path d="M27.0674 14.6659C27.0674 22.0758 21.1158 28.075 13.7837 28.075C6.45158 28.075 0.5 22.0758 0.5 14.6659C0.5 7.25601 6.45158 1.25684 13.7837 1.25684C21.1158 1.25684 27.0674 7.25601 27.0674 14.6659Z" stroke="white"/>
<path fill-rule="evenodd" clip-rule="evenodd" d="M10.7018 6.80484C11.5549 6.76556 11.8269 6.75684 14 6.75684C16.1731 6.75684 16.4451 6.76629 17.2975 6.80484C18.1498 6.84338 18.7316 6.97938 19.2407 7.17647C19.7738 7.37793 20.2575 7.69284 20.6575 8.10011C21.0647 8.49938 21.3789 8.98229 21.5796 9.51611C21.7775 10.0252 21.9127 10.607 21.952 11.4579C21.9913 12.3125 22 12.5845 22 14.7568C22 16.9299 21.9905 17.2019 21.952 18.055C21.9135 18.9059 21.7775 19.4877 21.5796 19.9968C21.3789 20.5307 21.0642 21.0144 20.6575 21.4143C20.2575 21.8216 19.7738 22.1357 19.2407 22.3365C18.7316 22.5343 18.1498 22.6696 17.2989 22.7088C16.4451 22.7481 16.1731 22.7568 14 22.7568C11.8269 22.7568 11.5549 22.7474 10.7018 22.7088C9.85091 22.6703 9.26909 22.5343 8.76 22.3365C8.22612 22.1357 7.74241 21.821 7.34255 21.4143C6.93555 21.0148 6.62059 20.5313 6.41964 19.9976C6.22255 19.4885 6.08727 18.9067 6.048 18.0557C6.00873 17.2012 6 16.9292 6 14.7568C6 12.5837 6.00945 12.3117 6.048 11.4594C6.08655 10.607 6.22255 10.0252 6.41964 9.51611C6.62089 8.98235 6.93609 8.49888 7.34327 8.09938C7.74257 7.69247 8.2258 7.37752 8.75927 7.17647C9.26836 6.97938 9.85018 6.84411 10.7011 6.80484H10.7018ZM17.2327 8.24484C16.3891 8.20629 16.136 8.19829 14 8.19829C11.864 8.19829 11.6109 8.20629 10.7673 8.24484C9.98691 8.28047 9.56364 8.41065 9.28145 8.52047C8.90836 8.66593 8.64145 8.83829 8.36145 9.11829C8.09603 9.37651 7.89177 9.69086 7.76364 10.0383C7.65382 10.3205 7.52364 10.7437 7.488 11.5241C7.44945 12.3677 7.44145 12.6208 7.44145 14.7568C7.44145 16.8928 7.44945 17.1459 7.488 17.9896C7.52364 18.7699 7.65382 19.1932 7.76364 19.4754C7.89164 19.8223 8.096 20.1372 8.36145 20.3954C8.61964 20.6608 8.93455 20.8652 9.28145 20.9932C9.56364 21.103 9.98691 21.2332 10.7673 21.2688C11.6109 21.3074 11.8633 21.3154 14 21.3154C16.1367 21.3154 16.3891 21.3074 17.2327 21.2688C18.0131 21.2332 18.4364 21.103 18.7185 20.9932C19.0916 20.8477 19.3585 20.6754 19.6385 20.3954C19.904 20.1372 20.1084 19.8223 20.2364 19.4754C20.3462 19.1932 20.4764 18.7699 20.512 17.9896C20.5505 17.1459 20.5585 16.8928 20.5585 14.7568C20.5585 12.6208 20.5505 12.3677 20.512 11.5241C20.4764 10.7437 20.3462 10.3205 20.2364 10.0383C20.0909 9.6652 19.9185 9.39829 19.6385 9.11829C19.3803 8.85289 19.066 8.64863 18.7185 8.52047C18.4364 8.41065 18.0131 8.28047 17.2327 8.24484ZM12.9782 17.223C13.5488 17.4606 14.1843 17.4926 14.7759 17.3137C15.3676 17.1348 15.8788 16.756 16.2223 16.2421C16.5657 15.7282 16.72 15.1109 16.6589 14.4958C16.5978 13.8807 16.3251 13.3059 15.8873 12.8696C15.6082 12.5906 15.2707 12.3771 14.8992 12.2442C14.5276 12.1114 14.1312 12.0626 13.7385 12.1013C13.3459 12.14 12.9667 12.2653 12.6282 12.4682C12.2898 12.6711 12.0005 12.9465 11.7813 13.2745C11.5621 13.6026 11.4183 13.9752 11.3604 14.3655C11.3024 14.7558 11.3317 15.1541 11.4462 15.5318C11.5607 15.9094 11.7574 16.2569 12.0223 16.5494C12.2872 16.8418 12.6137 17.0719 12.9782 17.223ZM11.0924 11.8492C11.4742 11.4674 11.9275 11.1645 12.4264 10.9578C12.9253 10.7512 13.46 10.6448 14 10.6448C14.54 10.6448 15.0747 10.7512 15.5736 10.9578C16.0725 11.1645 16.5258 11.4674 16.9076 11.8492C17.2895 12.231 17.5924 12.6843 17.799 13.1832C18.0057 13.6821 18.112 14.2168 18.112 14.7568C18.112 15.2968 18.0057 15.8315 17.799 16.3304C17.5924 16.8293 17.2895 17.2826 16.9076 17.6645C16.1365 18.4356 15.0906 18.8689 14 18.8689C12.9094 18.8689 11.8635 18.4356 11.0924 17.6645C10.3212 16.8933 9.88798 15.8474 9.88798 14.7568C9.88798 13.6663 10.3212 12.6204 11.0924 11.8492ZM19.024 11.2572C19.1186 11.1679 19.1944 11.0606 19.2468 10.9415C19.2992 10.8225 19.3271 10.6941 19.329 10.5641C19.3309 10.434 19.3067 10.3049 19.2578 10.1843C19.2089 10.0638 19.1363 9.9543 19.0443 9.86232C18.9524 9.77034 18.8429 9.69775 18.7223 9.64885C18.6018 9.59995 18.4727 9.57573 18.3426 9.57762C18.2125 9.57952 18.0842 9.60749 17.9651 9.65989C17.8461 9.71228 17.7387 9.78803 17.6495 9.88265C17.4759 10.0667 17.3808 10.3111 17.3845 10.5641C17.3882 10.817 17.4903 11.0586 17.6692 11.2374C17.8481 11.4163 18.0896 11.5185 18.3426 11.5221C18.5955 11.5258 18.84 11.4308 19.024 11.2572Z" fill="white"/>
</svg>
