<svg width="171" height="41" viewBox="0 0 171 41" fill="none" xmlns="http://www.w3.org/2000/svg">
<path d="M0.15 39.7568V0.756834H7.15V34.1068H24.5V39.7568H0.15ZM53.9266 40.4568C49.8932 40.4568 46.5266 39.6402 43.8266 38.0068C41.1599 36.3402 39.1599 33.9902 37.8266 30.9568C36.5266 27.9235 35.8766 24.3568 35.8766 20.2568C35.8766 16.1235 36.5266 12.5568 37.8266 9.55684C39.1599 6.5235 41.1599 4.19017 43.8266 2.55684C46.5266 0.890168 49.8932 0.0568345 53.9266 0.0568345C58.0266 0.0568345 61.4099 0.890168 64.0766 2.55684C66.7432 4.19017 68.7266 6.5235 70.0266 9.55684C71.3599 12.5568 72.0266 16.1235 72.0266 20.2568C72.0266 24.3568 71.3599 27.9235 70.0266 30.9568C68.7266 33.9902 66.7432 36.3402 64.0766 38.0068C61.4099 39.6402 58.0266 40.4568 53.9266 40.4568ZM53.9266 35.0568C57.6599 35.0568 60.4099 33.7735 62.1766 31.2068C63.9432 28.6068 64.8266 24.9568 64.8266 20.2568C64.8266 15.5568 63.9432 11.9235 62.1766 9.35684C60.4099 6.75684 57.6599 5.45684 53.9266 5.45684C50.2266 5.45684 47.4932 6.75684 45.7266 9.35684C43.9599 11.9235 43.0766 15.5568 43.0766 20.2568C43.0766 24.9568 43.9599 28.6068 45.7266 31.2068C47.4932 33.7735 50.2266 35.0568 53.9266 35.0568ZM102.053 40.4568C98.4198 40.4568 95.3531 39.6068 92.8531 37.9068C90.3531 36.2068 88.4531 33.8235 87.1531 30.7568C85.8531 27.6902 85.2031 24.1568 85.2031 20.1568C85.2031 16.0902 85.8531 12.5568 87.1531 9.55684C88.4865 6.5235 90.4698 4.19017 93.1031 2.55684C95.7698 0.890168 99.0698 0.0568345 103.003 0.0568345C106.27 0.0568345 109.036 0.623502 111.303 1.75684C113.57 2.89017 115.353 4.49017 116.653 6.55684C117.953 8.59017 118.786 10.9902 119.153 13.7568H112.353C111.953 11.0902 110.953 9.04017 109.353 7.60683C107.753 6.1735 105.586 5.45684 102.853 5.45684C99.2531 5.45684 96.5865 6.75684 94.8531 9.35684C93.1198 11.9568 92.2531 15.5568 92.2531 20.1568C92.2531 24.9235 93.1698 28.6235 95.0031 31.2568C96.8365 33.8568 99.5198 35.1568 103.053 35.1568C106.02 35.1568 108.32 34.2902 109.953 32.5568C111.62 30.7902 112.536 28.3735 112.703 25.3068H100.853V20.0068H119.203V39.7568H113.903V35.1068H112.703C112.003 36.5402 110.82 37.7902 109.153 38.8568C107.52 39.9235 105.153 40.4568 102.053 40.4568ZM152.111 40.4568C148.078 40.4568 144.711 39.6402 142.011 38.0068C139.344 36.3402 137.344 33.9902 136.011 30.9568C134.711 27.9235 134.061 24.3568 134.061 20.2568C134.061 16.1235 134.711 12.5568 136.011 9.55684C137.344 6.5235 139.344 4.19017 142.011 2.55684C144.711 0.890168 148.078 0.0568345 152.111 0.0568345C156.211 0.0568345 159.594 0.890168 162.261 2.55684C164.928 4.19017 166.911 6.5235 168.211 9.55684C169.544 12.5568 170.211 16.1235 170.211 20.2568C170.211 24.3568 169.544 27.9235 168.211 30.9568C166.911 33.9902 164.928 36.3402 162.261 38.0068C159.594 39.6402 156.211 40.4568 152.111 40.4568ZM152.111 35.0568C155.844 35.0568 158.594 33.7735 160.361 31.2068C162.128 28.6068 163.011 24.9568 163.011 20.2568C163.011 15.5568 162.128 11.9235 160.361 9.35684C158.594 6.75684 155.844 5.45684 152.111 5.45684C148.411 5.45684 145.678 6.75684 143.911 9.35684C142.144 11.9235 141.261 15.5568 141.261 20.2568C141.261 24.9568 142.144 28.6068 143.911 31.2068C145.678 33.7735 148.411 35.0568 152.111 35.0568Z" fill="white"/>
</svg>
